<?xml version="1.0" encoding="utf-8"?>
<svg width="50px" height="50px" viewBox="0 0 50 50" version="1.1" xmlns:xlink="http://www.w3.org/1999/xlink" xmlns="http://www.w3.org/2000/svg">
  <defs>
    <path d="M0 0L50 0L50 50L0 50L0 0Z" id="path_1" />
    <clipPath id="mask_1">
      <use xlink:href="#path_1" />
    </clipPath>
  </defs>
  <g id="Adobe-After-Effects-icon">
    <path d="M0 0L50 0L50 50L0 50L0 0Z" id="Background" fill="none" fill-rule="evenodd" stroke="none" />
    <g clip-path="url(#mask_1)">
      <path d="M6.25 10.4167C6.25 8.11563 8.11563 6.25 10.4167 6.25L39.5833 6.25C41.8844 6.25 43.75 8.11563 43.75 10.4167L43.75 39.5833C43.75 41.8844 41.8844 43.75 39.5833 43.75L10.4167 43.75C8.11563 43.75 6.25 41.8844 6.25 39.5833L6.25 10.4167L6.25 10.4167Z" id="Shape" fill="#B388FF" fill-rule="evenodd" stroke="none" />
      <path d="M9.375 9.375L9.375 40.625L40.625 40.625L40.625 9.375L9.375 9.375L9.375 9.375Z" id="Shape" fill="#170B40" fill-rule="evenodd" stroke="none" />
      <path d="M22.0656 29.1302L17.3208 29.1302L16.4187 32.0948L13.5417 32.0948L18.4312 17.7084L20.9385 17.7084L25.8542 32.0938L22.9771 32.0938L22.0656 29.1302L22.0656 29.1302ZM18.0521 26.7292L21.3354 26.7292L19.6854 21.3438L18.0521 26.7292L18.0521 26.7292ZM31.4021 32.2917C30.6437 32.2917 29.9656 32.1563 29.3677 31.8865C28.7687 31.6167 28.2615 31.2469 27.8427 30.7792C27.424 30.3115 27.1062 29.7636 26.8865 29.1344C26.6677 28.5053 26.5573 27.8323 26.5573 27.1136L26.5573 26.7282C26.5573 25.9178 26.6646 25.1751 26.8781 24.5001C27.0906 23.8251 27.3948 23.2438 27.7896 22.7563C28.1823 22.2688 28.6615 21.8886 29.2229 21.6146C29.7854 21.3417 30.4156 21.2042 31.1125 21.2042C31.8156 21.2042 32.4354 21.3313 32.9708 21.5844C33.5062 21.8376 33.9552 22.1938 34.3198 22.6521C34.6833 23.1094 34.9573 23.6615 35.1406 24.3073C35.324 24.9532 35.4167 25.6719 35.4167 26.4626L35.4167 27.6782L29.2021 27.6782C29.2437 28.0271 29.3302 28.3438 29.4594 28.6261C29.5885 28.9094 29.7542 29.1511 29.9552 29.3521C30.1562 29.5532 30.3927 29.7094 30.6625 29.8219C30.9333 29.9344 31.2375 29.9896 31.574 29.9896C32.049 29.9896 32.4885 29.8928 32.8906 29.698C33.2937 29.5042 33.6396 29.2021 33.9281 28.7938L35.2094 30.3646C35.0531 30.6084 34.8573 30.8459 34.6229 31.0761C34.3885 31.3063 34.1115 31.5126 33.7927 31.6938C33.474 31.8751 33.1156 32.0198 32.7146 32.1282C32.3146 32.2376 31.8781 32.2917 31.4021 32.2917L31.4021 32.2917ZM31.1052 23.5177C30.8219 23.5177 30.575 23.5719 30.3604 23.6812C30.1469 23.7896 29.9635 23.9417 29.8104 24.1354C29.6573 24.3292 29.5323 24.5615 29.4365 24.8323C29.3406 25.1021 29.2719 25.4021 29.2302 25.7312L32.8563 25.7312L32.8563 25.5042C32.85 25.2208 32.8125 24.9573 32.7427 24.7135C32.674 24.4698 32.5687 24.2594 32.4271 24.0812C32.2854 23.9031 32.1052 23.7656 31.8865 23.6667C31.6646 23.5677 31.4052 23.5177 31.1052 23.5177L31.1052 23.5177Z" id="Shape" fill="#B388FF" fill-rule="evenodd" stroke="none" />
    </g>
  </g>
</svg>