<?xml version="1.0" encoding="utf-8"?>
<svg width="50px" height="50px" viewBox="0 0 50 50" version="1.1" xmlns:xlink="http://www.w3.org/1999/xlink" xmlns="http://www.w3.org/2000/svg">
  <defs>
    <path d="M0 0L50 0L50 50L0 50L0 0Z" id="path_1" />
    <clipPath id="mask_1">
      <use xlink:href="#path_1" />
    </clipPath>
  </defs>
  <g id="Adobe-Photoshop-icon">
    <path d="M0 0L50 0L50 50L0 50L0 0Z" id="Background" fill="none" fill-rule="evenodd" stroke="none" />
    <g clip-path="url(#mask_1)">
      <path d="M6.25 10.4167C6.25 8.11563 8.11563 6.25 10.4167 6.25L39.5833 6.25C41.8844 6.25 43.75 8.11563 43.75 10.4167L43.75 39.5833C43.75 41.8844 41.8844 43.75 39.5833 43.75L10.4167 43.75C8.11563 43.75 6.25 41.8844 6.25 39.5833L6.25 10.4167L6.25 10.4167Z" id="Shape" fill="#03A9F4" fill-rule="evenodd" stroke="none" />
      <path d="M20.85 19.9729L18.7646 19.9729L18.7646 24.5917L20.8198 24.5917C21.3896 24.5917 21.8302 24.4052 22.1427 24.0323C22.4552 23.6594 22.6104 23.1166 22.6104 22.4042C22.6104 21.6646 22.451 21.0771 22.1323 20.6396C21.8135 20.2021 21.3854 19.9802 20.85 19.9729L20.85 19.9729Z" id="Shape" fill="#020F16" fill-rule="evenodd" stroke="none" />
      <path d="M9.375 9.375L9.375 40.625L40.625 40.625L40.625 9.375L9.375 9.375L9.375 9.375ZM24.3385 25.8219C23.4781 26.6636 22.2844 27.0834 20.7583 27.0834L18.7646 27.0834L18.7646 32.2917L15.774 32.2917L15.774 17.4802L20.8198 17.4802C22.2844 17.4802 23.4531 17.9354 24.324 18.8438C25.1948 19.7521 25.6312 20.9323 25.6312 22.3834C25.6312 23.8344 25.2 24.9802 24.3385 25.8219L24.3385 25.8219ZM34.0437 31.6C33.3052 32.1969 32.3344 32.4948 31.1344 32.4948C30.3271 32.4948 29.6146 32.3375 28.9979 32.0219C28.3812 31.7063 27.8969 31.2667 27.5479 30.7042C27.199 30.1417 27.024 29.5344 27.024 28.8834L29.7604 28.8834C29.775 29.3844 29.8906 29.7615 30.1115 30.0125C30.3323 30.2636 30.6927 30.3886 31.1948 30.3886C31.9677 30.3886 32.3542 30.0396 32.3542 29.3407C32.3542 29.0969 32.2375 28.8709 32.0031 28.6646C31.7687 28.4584 31.25 28.1792 30.4427 27.8261C29.2563 27.3448 28.4406 26.8469 27.9958 26.3303C27.551 25.8136 27.3292 25.174 27.3292 24.4073C27.3292 23.4438 27.6771 22.649 28.3719 22.0219C29.0667 21.3948 29.9885 21.0813 31.1333 21.0813C32.3396 21.0813 33.3063 21.3938 34.0323 22.0167C34.7583 22.6396 35.1208 23.4782 35.1208 24.5292L32.2417 24.5292C32.2417 23.6344 31.8698 23.1865 31.1229 23.1865C30.8177 23.1865 30.5677 23.2813 30.3698 23.4709C30.1719 23.6605 30.075 23.9261 30.075 24.2646C30.075 24.5084 30.1833 24.724 30.401 24.9105C30.6187 25.0969 31.1292 25.3636 31.9375 25.7094C33.1115 26.1438 33.9396 26.6271 34.425 27.1594C34.9104 27.6917 35.1521 28.3823 35.1521 29.2292C35.1521 30.2136 34.7823 31.0032 34.0437 31.6L34.0437 31.6Z" id="Shape" fill="#020F16" fill-rule="evenodd" stroke="none" />
    </g>
  </g>
</svg>