<?xml version="1.0" encoding="utf-8"?>
<svg width="50px" height="50px" viewBox="0 0 50 50" version="1.1" xmlns:xlink="http://www.w3.org/1999/xlink" xmlns="http://www.w3.org/2000/svg">
  <defs>
    <path d="M0 0L50 0L50 50L0 50L0 0Z" id="path_1" />
    <clipPath id="mask_1">
      <use xlink:href="#path_1" />
    </clipPath>
  </defs>
  <g id="Adobe-Illustrator-icon">
    <path d="M0 0L50 0L50 50L0 50L0 0Z" id="Background" fill="none" fill-rule="evenodd" stroke="none" />
    <g clip-path="url(#mask_1)">
      <path d="M6.25 10.4167C6.25 8.11563 8.11563 6.25 10.4167 6.25L39.5833 6.25C41.8844 6.25 43.75 8.11563 43.75 10.4167L43.75 39.5833C43.75 41.8844 41.8844 43.75 39.5833 43.75L10.4167 43.75C8.11563 43.75 6.25 41.8844 6.25 39.5833L6.25 10.4167L6.25 10.4167Z" id="Shape" fill="#FF5722" fill-rule="evenodd" stroke="none" />
      <path d="M9.375 9.375L9.375 40.625L40.625 40.625L40.625 9.375L9.375 9.375L9.375 9.375ZM24.6781 32.2917L23.8844 29.2604L19.8052 29.2604L19.0125 32.2917L15.849 32.2917L20.4771 17.4802L23.2135 17.4802L27.8729 32.2917L24.6781 32.2917L24.6781 32.2917ZM32.1354 32.2916L29.2469 32.2916L29.2469 21.2854L32.1354 21.2854L32.1354 32.2916L32.1354 32.2916ZM31.825 19.5354C31.5427 19.8271 31.1625 19.9729 30.6802 19.9729C30.1979 19.9729 29.8177 19.8271 29.5354 19.5354C29.2531 19.2437 29.1135 18.8771 29.1135 18.4364C29.1135 17.9885 29.2562 17.6229 29.5406 17.3375C29.825 17.0521 30.2062 16.9104 30.6802 16.9104C31.1542 16.9104 31.5344 17.0531 31.8198 17.3375C32.1052 17.6219 32.2469 17.9885 32.2469 18.4364C32.2469 18.8771 32.1063 19.2437 31.825 19.5354L31.825 19.5354Z" id="Shape" fill="#1C0802" fill-rule="evenodd" stroke="none" />
      <path d="M20.4573 26.7677L23.224 26.7677L21.8406 21.4885L20.4573 26.7677Z" id="Shape" fill="#1C0802" fill-rule="evenodd" stroke="none" />
    </g>
  </g>
</svg>