<?xml version="1.0" encoding="utf-8"?>
<svg width="50px" height="50px" viewBox="0 0 50 50" version="1.1" xmlns:xlink="http://www.w3.org/1999/xlink" xmlns="http://www.w3.org/2000/svg">
  <defs>
    <linearGradient x1="1.4714897E-07" y1="0.50000656" x2="1" y2="0.50000656" id="gradient_1">
      <stop offset="0" stop-color="#FFA402" />
      <stop offset="1" stop-color="#FF8800" />
    </linearGradient>
    <path d="M0 0L50 0L50 50L0 50L0 0Z" id="path_1" />
    <clipPath id="mask_1">
      <use xlink:href="#path_1" />
    </clipPath>
  </defs>
  <g id="Blender-3D-icon">
    <path d="M0 0L50 0L50 50L0 50L0 0Z" id="Background" fill="none" fill-rule="evenodd" stroke="none" />
    <g clip-path="url(#mask_1)">
      <path d="M40.625 16.6666C37.0958 14.0906 27.2031 5.82388 27.2031 5.82388C26.1042 4.89472 24.4615 5.03222 23.5333 6.13013C22.6031 7.22805 22.7406 8.87076 23.8385 9.79993L29.4906 14.5833L9.89583 14.5833C8.45729 14.5833 7.29166 15.7489 7.29166 17.1874C7.29166 18.626 8.45729 19.7916 9.89583 19.7916L19.049 19.7916L2.06041 32.8301C0.919788 33.7062 0.704163 35.3406 1.5802 36.4812C2.0927 37.1499 2.86562 37.4999 3.64791 37.4999C4.20104 37.4999 4.75833 37.3249 5.23229 36.9614L15.6448 28.9697C15.6417 29.0905 15.625 29.2062 15.625 29.327C15.625 37.4697 22.4292 43.7499 31.25 43.7499C40.0708 43.7499 47.5698 37.4697 47.5698 29.327C47.5698 24.2447 44.6625 19.6145 40.625 16.6666L40.625 16.6666Z" id="Shape" fill="url(#gradient_1)" fill-rule="evenodd" stroke="none" />
      <path d="M21.6146 28.125C21.6146 22.9473 26.1617 18.75 31.7708 18.75C37.38 18.75 41.9271 22.9473 41.9271 28.125C41.9271 33.3027 37.38 37.5 31.7708 37.5C26.1617 37.5 21.6146 33.3027 21.6146 28.125Z" id="Ellipse" fill="#FFFFFF" fill-rule="evenodd" stroke="none" />
      <path d="M31.7708 18.75C37.3802 18.75 41.9271 22.9469 41.9271 28.125C41.9271 33.3031 37.3802 37.5 31.7708 37.5C26.1615 37.5 21.6146 33.3031 21.6146 28.125C21.6146 22.9469 26.1615 18.75 31.7708 18.75M31.7708 18.2291C25.8833 18.2291 21.0938 22.6687 21.0938 28.125C21.0938 33.5812 25.8833 38.0208 31.7708 38.0208C37.6583 38.0208 42.4479 33.5812 42.4479 28.125C42.4479 22.6687 37.6583 18.2291 31.7708 18.2291L31.7708 18.2291L31.7708 18.2291Z" id="Shape" fill="#000000" fill-opacity="0.07" fill-rule="evenodd" stroke="none" />
      <path d="M31.7708 18.2292C37.6583 18.2292 42.4479 22.6688 42.4479 28.1251C42.4479 33.5813 37.6583 38.0209 31.7708 38.0209C25.8833 38.0209 21.0938 33.5813 21.0938 28.1251C21.0938 22.6688 25.8833 18.2292 31.7708 18.2292M31.7708 17.7084C25.5958 17.7084 20.5729 22.3813 20.5729 28.125C20.5729 33.8688 25.5958 38.5417 31.7708 38.5417C37.9458 38.5417 42.9688 33.8688 42.9688 28.125C42.9688 22.3813 37.9458 17.7084 31.7708 17.7084L31.7708 17.7084L31.7708 17.7084Z" id="Shape" fill="#000000" fill-opacity="0.05" fill-rule="evenodd" stroke="none" />
      <path d="M26.0417 28.125C26.0417 25.2485 28.6067 22.9166 31.7708 22.9166C34.935 22.9166 37.5 25.2485 37.5 28.125C37.5 31.0014 34.935 33.3333 31.7708 33.3333C28.6067 33.3333 26.0417 31.0014 26.0417 28.125Z" id="Ellipse" fill="#0370C8" fill-rule="evenodd" stroke="none" />
      <path d="M31.7708 22.3959C35.2167 22.3959 38.0208 24.9657 38.0208 28.125C38.0208 31.2844 35.2167 33.8542 31.7708 33.8542C28.325 33.8542 25.5208 31.2844 25.5208 28.125C25.5208 24.9657 28.325 22.3959 31.7708 22.3959M31.7708 21.875C28.0375 21.875 25 24.6792 25 28.125C25 31.5708 28.0375 34.375 31.7708 34.375C35.5042 34.375 38.5417 31.5708 38.5417 28.125C38.5417 24.6792 35.5042 21.875 31.7708 21.875L31.7708 21.875L31.7708 21.875Z" id="Shape" fill="#000000" fill-opacity="0.05" fill-rule="evenodd" stroke="none" />
      <path d="M31.7708 22.9167C34.9354 22.9167 37.5 25.249 37.5 28.1251C37.5 31.0011 34.9354 33.3334 31.7708 33.3334C28.6062 33.3334 26.0417 31.0011 26.0417 28.1251C26.0417 25.249 28.6062 22.9167 31.7708 22.9167M31.7708 22.3959C28.325 22.3959 25.5208 24.9657 25.5208 28.125C25.5208 31.2844 28.325 33.8542 31.7708 33.8542C35.2167 33.8542 38.0208 31.2844 38.0208 28.125C38.0208 24.9657 35.2167 22.3959 31.7708 22.3959L31.7708 22.3959L31.7708 22.3959Z" id="Shape" fill="#000000" fill-opacity="0.07" fill-rule="evenodd" stroke="none" />
    </g>
  </g>
</svg>