<?xml version="1.0" encoding="utf-8"?>
<svg width="50px" height="50px" viewBox="0 0 50 50" version="1.1" xmlns:xlink="http://www.w3.org/1999/xlink" xmlns="http://www.w3.org/2000/svg">
  <defs>
    <path d="M0 0L50 0L50 50L0 50L0 0Z" id="path_1" />
    <clipPath id="mask_1">
      <use xlink:href="#path_1" />
    </clipPath>
  </defs>
  <g id="C-Sharp-Logo-icon">
    <path d="M0 0L50 0L50 50L0 50L0 0Z" id="Background" fill="none" fill-rule="evenodd" stroke="none" />
    <g clip-path="url(#mask_1)">
      <path d="M23.8573 3.4229C24.5646 3.02603 25.4354 3.02603 26.1417 3.4229C29.6365 5.38436 40.1531 11.2885 43.649 13.25C44.3562 13.6458 44.7917 14.3792 44.7917 15.1729C44.7917 19.0958 44.7917 30.9031 44.7917 34.826C44.7917 35.6198 44.3562 36.3531 43.649 36.75C40.1542 38.7114 29.6375 44.6156 26.1417 46.5771C25.4344 46.9739 24.5635 46.9739 23.8573 46.5771C20.3625 44.6156 9.84583 38.7114 6.35 36.75C5.64374 36.3531 5.20833 35.6208 5.20833 34.8271C5.20833 30.9041 5.20833 19.0969 5.20833 15.1739C5.20833 14.3802 5.64374 13.6469 6.35104 13.25C9.84479 11.2885 20.3635 5.38436 23.8573 3.4229L23.8573 3.4229Z" id="Shape" fill="#37474F" fill-rule="evenodd" stroke="none" />
      <path d="M5.52499 35.8375C5.24791 35.4667 5.20833 35.1146 5.20833 34.6407C5.20833 30.7407 5.20833 19.0011 5.20833 15.1C5.20833 14.3105 5.6427 13.5813 6.34791 13.1875C9.8302 11.2375 20.3115 5.36776 23.7937 3.41672C24.499 3.02192 25.4542 3.03026 26.1594 3.42505C29.6417 5.37505 40.0875 11.1948 43.5698 13.1448C43.851 13.3032 44.0656 13.4938 44.2573 13.7448L5.52499 35.8375L5.52499 35.8375Z" id="Shape" fill="#546E7A" fill-rule="evenodd" stroke="none" />
      <path d="M25 10.4166C33.049 10.4166 39.5833 16.951 39.5833 25C39.5833 33.0489 33.049 39.5833 25 39.5833C16.951 39.5833 10.4167 33.0489 10.4167 25C10.4167 16.951 16.951 10.4166 25 10.4166L25 10.4166ZM25 17.7083C29.024 17.7083 32.2917 20.9749 32.2917 24.9999C32.2917 29.0239 29.024 32.2916 25 32.2916C20.9761 32.2916 17.7083 29.0239 17.7083 24.9999C17.7083 20.9749 20.975 17.7083 25 17.7083L25 17.7083Z" id="Shape" fill="#FFFFFF" fill-rule="evenodd" stroke="none" />
      <path d="M44.2552 13.7551C44.7927 14.2583 44.7823 15.0166 44.7823 15.6135C44.7823 19.5666 44.749 30.8103 44.7917 34.7635C44.7958 35.176 44.6594 35.6103 44.4552 35.9374L24.576 24.9999L44.2552 13.7551L44.2552 13.7551Z" id="Shape" fill="#455A64" fill-rule="evenodd" stroke="none" />
      <path d="M35.4167 20.8334L36.4583 20.8334L36.4583 29.1667L35.4167 29.1667L35.4167 20.8334ZM38.5417 20.8334L39.5833 20.8334L39.5833 29.1667L38.5417 29.1667L38.5417 20.8334Z" id="Shape" fill="#FFFFFF" fill-rule="evenodd" stroke="none" />
      <path d="M33.3333 26.0416L41.6667 26.0416L41.6667 27.0833L33.3333 27.0833L33.3333 26.0416ZM33.3333 22.9166L41.6667 22.9166L41.6667 23.9583L33.3333 23.9583L33.3333 22.9166Z" id="Shape" fill="#FFFFFF" fill-rule="evenodd" stroke="none" />
    </g>
  </g>
</svg>