<?xml version="1.0" encoding="utf-8"?>
<svg width="50px" height="50px" viewBox="0 0 50 50" version="1.1" xmlns:xlink="http://www.w3.org/1999/xlink" xmlns="http://www.w3.org/2000/svg">
  <defs>
    <path d="M0 0L50 0L50 50L0 50L0 0Z" id="path_1" />
    <clipPath id="mask_1">
      <use xlink:href="#path_1" />
    </clipPath>
  </defs>
  <g id="Javascript-icon">
    <path d="M0 0L50 0L50 50L0 50L0 0Z" id="Background" fill="none" fill-rule="evenodd" stroke="none" />
    <g clip-path="url(#mask_1)">
      <path d="M6.25 43.75L6.25 6.25L43.75 6.25L43.75 43.75L6.25 43.75L6.25 43.75Z" id="Shape" fill="#FFD600" fill-rule="evenodd" stroke="none" />
      <path d="M30.7687 34.3198C31.4896 35.4906 32.2729 36.6125 33.9323 36.6125C35.326 36.6125 36.0573 35.9198 36.0573 34.9615C36.0573 33.8146 35.301 33.4073 33.7677 32.7396L32.9271 32.3813C30.501 31.3521 28.8875 30.0625 28.8875 27.3386C28.8875 24.8281 30.8094 22.9177 33.8125 22.9177C35.951 22.9177 37.4875 23.6583 38.5958 25.5979L35.9771 27.2719C35.401 26.2427 34.7781 25.8375 33.8125 25.8375C32.8271 25.8375 32.2031 26.4594 32.2031 27.2719C32.2031 28.2761 32.8281 28.6823 34.2708 29.3042L35.1115 29.6625C37.9708 30.8802 39.5833 32.124 39.5833 34.9198C39.5833 37.9323 37.2042 39.5833 34.0104 39.5833C30.8865 39.5833 29.1125 38.0156 28.125 36.075L30.7687 34.3198L30.7687 34.3198ZM18.7 34.4052C19.2271 35.3489 20.0281 36.075 21.1802 36.075C22.2823 36.075 22.9167 35.6395 22.9167 33.9468L22.9167 22.9166L26.3885 22.9166L26.3885 34.4802C26.3885 37.9875 24.3542 39.5833 21.3833 39.5833C18.699 39.5833 16.7615 37.7645 15.9719 36.075L18.7 34.4052L18.7 34.4052Z" id="Shape" fill="#000001" fill-rule="evenodd" stroke="none" />
    </g>
  </g>
</svg>