<?xml version="1.0" encoding="utf-8"?>
<svg width="50px" height="50px" viewBox="0 0 50 50" version="1.1" xmlns:xlink="http://www.w3.org/1999/xlink" xmlns="http://www.w3.org/2000/svg">
  <defs>
    <path d="M0 0L50 0L50 50L0 50L0 0Z" id="path_1" />
    <clipPath id="mask_1">
      <use xlink:href="#path_1" />
    </clipPath>
  </defs>
  <g id="Java-icon">
    <path d="M0 0L50 0L50 50L0 50L0 0Z" id="Background" fill="none" fill-rule="evenodd" stroke="none" />
    <g clip-path="url(#mask_1)">
      <path d="M24.6354 25.9354C23.5958 24.2594 22.8417 22.8698 21.7969 20.2531C20.0302 15.8334 32.5417 11.8396 27.4687 4.16565C29.6677 9.46669 19.576 12.7438 18.6385 17.1584C17.7812 21.2188 24.6302 25.9354 24.6354 25.9354L24.6354 25.9354Z" id="Shape" fill="#F44336" fill-rule="evenodd" stroke="none" />
      <path d="M24.8729 17.9895C24.6729 20.6103 27.1948 22.0072 27.2677 23.9218C27.326 25.4801 25.7604 26.7791 25.7604 26.7791C25.7604 26.7791 28.6021 26.2207 29.4885 23.8437C30.4729 21.2041 27.5781 19.3968 27.876 17.2832C28.1542 15.2645 34.1583 11.5093 34.1583 11.5093C34.1583 11.5093 25.324 12.0947 24.8729 17.9895L24.8729 17.9895Z" id="Shape" fill="#F44336" fill-rule="evenodd" stroke="none" />
      <g id="Group" transform="translate(9.375 25.118774)">
        <path d="M24.0458 0.980151C25.8729 0.569735 27.4135 1.73328 27.4135 3.0739C27.4135 6.09577 23.225 8.95203 23.225 8.95203C23.225 8.95203 29.7094 8.17911 29.7094 3.21765C29.7094 -0.0636001 26.525 -0.88339 24.0458 0.980151L24.0458 0.980151ZM20.9677 3.41762C20.9677 3.41762 22.9896 1.97699 23.5281 1.43637C18.5667 2.48949 7.23855 2.63116 7.23855 1.71657C7.23855 0.873865 10.8917 0.0103233 10.8917 0.0103233C10.8917 0.0103233 2.7948 -0.106343 2.7948 2.2822C2.7948 4.77178 13.3938 4.94991 20.9677 3.41762L20.9677 3.41762Z" id="Shape" fill="#1565C0" fill-rule="evenodd" stroke="none" />
        <path d="M19.724 5.68428C15.0271 7.24574 6.37604 6.74678 8.93854 4.6499C7.69062 4.6499 5.84062 5.65303 5.84062 6.61761C5.84062 8.55198 15.1969 10.0457 22.1219 7.21344L19.724 5.68428L19.724 5.68428Z" id="Shape" fill="#1565C0" fill-rule="evenodd" stroke="none" />
        <path d="M10.0896 8.98438C8.38541 8.98438 7.28229 10.0823 7.28229 10.8823C7.28229 13.3729 17.449 13.624 21.4771 11.0958L18.9167 9.39583C15.9073 10.7188 8.34791 10.901 10.0896 8.98438L10.0896 8.98438Z" id="Shape" fill="#1565C0" fill-rule="evenodd" stroke="none" />
        <path d="M28.4177 13.0396C28.4177 12.0646 27.3187 11.6052 26.925 11.3854C29.2458 16.9823 3.67812 16.5479 3.67812 13.2437C3.67812 12.4927 5.56042 11.7573 7.3 12.1052L5.82083 11.2312C2.35417 10.6875 0 12.2115 0 13.4406C0 19.1729 28.4177 18.8969 28.4177 13.0396L28.4177 13.0396Z" id="Shape" fill="#1565C0" fill-rule="evenodd" stroke="none" />
        <path d="M31.25 15.0938C26.9313 19.3594 15.9802 20.9135 4.96771 18.2781C15.9802 22.9688 31.1979 20.3271 31.25 15.0938L31.25 15.0938Z" id="Shape" fill="#1565C0" fill-rule="evenodd" stroke="none" />
      </g>
    </g>
  </g>
</svg>