<?xml version="1.0" encoding="utf-8"?>
<svg width="50px" height="50px" viewBox="0 0 50 50" version="1.1" xmlns:xlink="http://www.w3.org/1999/xlink" xmlns="http://www.w3.org/2000/svg">
  <defs>
    <path d="M0 0L50 0L50 50L0 50L0 0Z" id="path_1" />
    <clipPath id="mask_1">
      <use xlink:href="#path_1" />
    </clipPath>
  </defs>
  <g id="Mysql-Logo-icon">
    <path d="M0 0L50 0L50 50L0 50L0 0Z" id="Background" fill="none" fill-rule="evenodd" stroke="none" />
    <g clip-path="url(#mask_1)">
      <path d="M0.00208333 36.501L2.00208 36.501L2.00208 29.1208L4.78021 35.4302C5.12292 36.2167 5.59167 36.4948 6.51146 36.4948C7.43125 36.4948 7.88125 36.2167 8.22396 35.4302L11.0021 29.2823L11.0021 36.501L13.0021 36.501L13.0021 28.9406C13.0021 28.2146 12.7135 27.8625 12.1177 27.6812C10.6937 27.2333 9.7375 27.6198 9.30521 28.5896L6.45625 35.0062L3.69687 28.5896C3.28229 27.6208 2.30937 27.2333 0.884375 27.6812C0.288542 27.8625 0 28.2135 0 28.9396L0 36.5L0.00208333 36.5L0.00208333 36.501Z" id="Shape" fill="#00796B" fill-rule="evenodd" stroke="none" />
      <path d="M14.001 30.5011L16.001 30.5011L16.001 34.7251C15.9854 34.9334 16.0677 35.4865 17.0323 35.5011C17.524 35.5094 19.9708 35.5011 20.001 35.5011L20.001 30.5011L22.001 30.5011C22.0094 30.5011 22.001 36.7178 22.001 36.7438C22.0115 38.2771 20.0969 38.4751 19.2167 38.5011L14.0021 38.5011L14.0021 37.5011C14.0125 37.5011 18.9885 37.5021 19.0031 37.5011C20.1365 37.3813 20.0021 36.7573 20.0021 36.5678L20.0021 36.5011L16.8646 36.5011C15.125 36.4855 14.0156 35.7188 14.0031 34.8448C14.001 34.7636 14.0406 30.5386 14.001 30.5011L14.001 30.5011Z" id="Shape" fill="#00796B" fill-rule="evenodd" stroke="none" />
      <path d="M23.001 36.5011L28.0083 36.5011C28.6646 36.5011 29.3021 36.3636 29.8083 36.1261C30.6521 35.7386 31 35.2146 31 34.5261L31 33.1011C31 31.5636 29.0938 31.5011 28 31.5011L26 31.5011C25.2136 31.5011 25.0938 31.0261 25 30.5011L25 29.5011C25.0938 29.1011 25.2688 28.5636 25.9615 28.5011C26.7667 28.5011 30.999 28.5011 30.999 28.5011L30.999 27.5011L26.2427 27.5011C25.4563 27.5011 22.999 27.5948 22.999 29.5011L22.999 30.7376C22.999 31.6126 23.7677 32.3251 25.4365 32.5001C25.624 32.5126 25.8115 32.5251 25.9979 32.5251C25.9979 32.5251 27.9417 32.4876 27.9979 32.5001C29.1229 32.5001 28.9979 33.3751 28.9979 33.5001L28.9979 34.5001C28.9979 34.6376 28.9667 35.5001 27.9865 35.5001C27.9115 35.5001 22.9979 35.5001 22.9979 35.5001L22.9979 36.5011L23.001 36.5011Z" id="Shape" fill="#F57F17" fill-rule="evenodd" stroke="none" />
      <path d="M42 34.4583C42 35.6656 42.6823 36.3427 44.4917 36.4781C44.6604 36.4896 44.8302 36.5 45 36.5L50 36.5L50 35.5L45.3802 35.5C44.3479 35.5 44 35.0667 44 34.4469L44 27.5L42 27.5L42 34.4583L42 34.4583Z" id="Shape" fill="#F57F17" fill-rule="evenodd" stroke="none" />
      <path d="M31.9833 34.5011L31.9833 29.5011C31.9833 28.4386 32.5042 27.7053 33.9792 27.5011L34.6792 27.5011L38.2698 27.5011L38.8167 27.5011C40.2917 27.7053 40.9833 28.4376 40.9833 29.5011L40.9833 34.4823C40.9833 35.3438 40.7594 35.8063 40.0292 36.1063L41.5792 37.5001L39.3292 37.5001L38.2146 36.5001L36.9052 36.5001L34.6802 36.5126C34.3583 36.5126 34.0187 36.4678 33.6458 36.3657C32.5271 36.0605 31.9833 35.473 31.9833 34.5011L31.9833 34.5011ZM33.9833 34.5011C34.0854 34.9876 34.476 35.5011 35.1708 35.5011L37.1125 35.5011L36 34.5011L38.2656 34.5011L38.8062 35.0032C38.8062 35.0032 39 34.8448 39 34.5011C39 34.1573 38.9833 29.5011 38.9833 29.5011C38.8812 29.049 38.4229 28.5011 37.7458 28.5011L35.1719 28.5011C34.3917 28.5011 33.9844 29.0719 33.9844 29.6032L33.9833 34.5011L33.9833 34.5011L33.9833 34.5011Z" id="Shape" fill="#F57F17" fill-rule="evenodd" stroke="none" />
      <path d="M48.124 26.4468C47.05 26.4176 46.2302 26.5176 45.5292 26.8124C45.3302 26.8968 45.0125 26.8989 44.9792 27.1489C45.0886 27.2635 45.1052 27.4353 45.1927 27.576C45.3594 27.8468 45.6427 28.2103 45.8948 28.3999C46.1708 28.6083 46.4552 28.8312 46.75 29.0114C47.275 29.3312 47.8615 29.5145 48.3677 29.8353C48.6656 30.0239 48.9615 30.2635 49.2531 30.476C49.3969 30.5822 49.4927 30.7458 49.6802 30.8124C49.6802 30.802 49.6802 30.7926 49.6802 30.7822C49.5823 30.6572 49.5563 30.4853 49.4667 30.3541C49.3344 30.2218 49.2021 30.0895 49.0698 29.9572C48.6823 29.4426 48.1885 28.9895 47.6656 28.6145C47.2479 28.3145 46.3135 27.9093 46.1385 27.4239C46.1281 27.4135 46.1188 27.4041 46.1073 27.3926C46.4031 27.3593 46.75 27.252 47.0229 27.1791C47.4823 27.0562 47.8917 27.0885 48.3656 26.9655C48.5792 26.9041 48.7927 26.8437 49.0063 26.7822C49.0063 26.7416 49.0063 26.701 49.0063 26.6603C48.7667 26.4145 48.5948 26.0895 48.3344 25.8666C47.65 25.2843 46.9042 24.703 46.1365 24.2176C45.7104 23.9489 45.1833 23.7739 44.7323 23.5458C44.5802 23.4687 44.3136 23.4291 44.2136 23.302C43.9761 22.9999 43.8479 22.6155 43.6646 22.2645C43.2813 21.527 42.9042 20.7208 42.5656 19.9447C42.3333 19.4156 42.1823 18.8926 41.8938 18.4176C40.5073 16.1385 39.0146 14.7624 36.7042 13.4103C36.2125 13.1228 35.6198 13.0093 34.9938 12.8603C34.6573 12.8406 34.3219 12.8197 33.9854 12.7989C33.7802 12.7124 33.5677 12.4624 33.374 12.3406C32.6083 11.8562 30.6438 10.8041 30.0771 12.1874C29.7188 13.0603 30.6125 13.9124 30.9323 14.3551C31.1563 14.6656 31.4438 15.0135 31.6042 15.3635C31.7094 15.5926 31.7281 15.8228 31.8177 16.0655C32.0396 16.6635 32.3906 17.3447 32.6781 17.8978C32.8229 18.1781 32.9833 18.4718 33.1667 18.7218C33.2792 18.8749 33.4719 18.9426 33.5031 19.1801C33.3146 19.4437 33.3042 19.8531 33.1979 20.1885C32.7208 21.6937 32.9011 23.5635 33.5948 24.676C33.8073 25.0176 34.3094 25.751 34.999 25.4697C35.6021 25.2239 35.4677 24.4624 35.6396 23.7906C35.6781 23.6385 35.6542 23.527 35.7313 23.4249C35.7313 23.4353 35.7313 23.4447 35.7313 23.4562C35.9146 23.8218 36.0969 24.1895 36.2813 24.5551C36.6886 25.2103 37.4104 25.8947 38.0209 26.3572C38.3375 26.5968 38.5875 27.0114 38.9979 27.151C38.9979 27.1406 38.9979 27.1312 38.9979 27.1197C38.9875 27.1197 38.9781 27.1197 38.9667 27.1197C38.8875 26.9958 38.7625 26.9447 38.6615 26.8447C38.4229 26.6103 38.1563 26.3197 37.9594 26.051C37.4031 25.2958 36.9115 24.4687 36.4636 23.6083C36.25 23.1968 36.0636 22.7447 35.8834 22.326C35.8136 22.1645 35.8146 21.9208 35.6698 21.8374C35.4719 22.1437 35.1823 22.3916 35.0292 22.7531C34.7854 23.3312 34.7531 24.0374 34.6636 24.7676C34.6094 24.7864 34.6333 24.7739 34.6021 24.7978C34.1771 24.6947 34.0271 24.2583 33.8688 23.8822C33.4688 22.9322 33.3948 21.4031 33.7469 20.3103C33.8375 20.027 34.249 19.1364 34.0834 18.8749C34.0042 18.6135 33.7417 18.4624 33.5959 18.2635C33.4136 18.0176 33.2334 17.6926 33.1073 17.4083C32.7802 16.6676 32.4698 15.8062 32.125 15.0572C31.9604 14.6989 31.6823 14.3374 31.4531 14.0197C31.2 13.6676 30.9156 13.4083 30.7198 12.9822C30.65 12.8312 30.5552 12.5885 30.6583 12.4322C30.6917 12.327 30.7375 12.2833 30.8417 12.2489C31.0188 12.1114 31.5115 12.2937 31.6969 12.3708C32.1865 12.5739 32.5948 12.7676 33.0094 13.0426C33.2084 13.1749 33.4094 13.4301 33.65 13.501C33.7417 13.501 33.8333 13.501 33.925 13.501C34.3552 13.5999 34.8365 13.5322 35.2375 13.6541C35.9479 13.8697 36.5833 14.2051 37.1604 14.5697C38.9208 15.6812 40.3594 17.2624 41.3438 19.1499C41.5021 19.4541 41.5708 19.7437 41.7094 20.0656C41.9906 20.7156 42.3458 21.3843 42.625 22.0197C42.9042 22.6541 43.1771 23.2937 43.5719 23.8218C43.7802 24.0989 44.5823 24.2478 44.9459 24.402C45.2011 24.5103 45.6198 24.6218 45.8615 24.7676C46.324 25.0468 46.7719 25.3791 47.2042 25.6833C47.425 25.8364 48.0906 26.1708 48.124 26.4468L48.124 26.4468Z" id="Shape" fill="#00796B" fill-rule="evenodd" stroke="none" />
      <path d="M34.4771 14.8157C34.2531 14.8116 34.0948 14.8397 33.9271 14.8772C33.9271 14.8876 33.9271 14.897 33.9271 14.9084C33.9375 14.9084 33.9469 14.9084 33.9583 14.9084C34.0656 15.1272 34.2531 15.2699 34.3854 15.4584C34.4875 15.672 34.5886 15.8855 34.6906 16.099C34.701 16.0886 34.7104 16.0793 34.7208 16.0688C34.9094 15.9355 34.9969 15.723 34.9958 15.397C34.9198 15.3168 34.9083 15.2168 34.8427 15.122C34.7552 14.9938 34.5865 14.922 34.4771 14.8157L34.4771 14.8157Z" id="Shape" fill="#00796B" fill-rule="evenodd" stroke="none" />
    </g>
  </g>
</svg>