<?xml version="1.0" encoding="utf-8"?>
<svg width="50px" height="50px" viewBox="0 0 50 50" version="1.1" xmlns:xlink="http://www.w3.org/1999/xlink" xmlns="http://www.w3.org/2000/svg">
  <defs>
    <path d="M0 0L50 0L50 50L0 50L0 0Z" id="path_1" />
    <clipPath id="mask_1">
      <use xlink:href="#path_1" />
    </clipPath>
  </defs>
  <g id="Php-Logo-icon">
    <path d="M0 0L50 0L50 50L0 50L0 0Z" id="Background" fill="none" fill-rule="evenodd" stroke="none" />
    <g clip-path="url(#mask_1)">
      <path d="M25 10.9375C11.6244 10.9375 0.781283 17.2943 0.78125 25.1359C0.781216 32.9775 11.6242 39.3343 24.9999 39.3344C38.3755 39.3344 49.2186 32.9776 49.2187 25.136C49.2188 17.2944 38.3757 10.9376 25.0001 10.9375L25 10.9375Z" id="Shape" fill="#B5C4E0" fill-rule="evenodd" stroke="none" />
      <path d="M25 10.9375C11.6242 10.9375 0.78125 17.2945 0.78125 25.1359C0.78125 32.9773 11.6242 39.3344 25 39.3344C38.3758 39.3344 49.2188 32.9773 49.2188 25.1359C49.2188 17.2945 38.3758 10.9375 25 10.9375L25 10.9375ZM25 35.4281C13.0297 35.4281 4.6875 30.0047 4.6875 25.1359C4.6875 20.268 13.0297 14.8438 25 14.8438C36.9703 14.8438 45.3125 20.268 45.3125 25.1359C45.3125 30.0039 36.9703 35.4281 25 35.4281L25 35.4281Z" id="Shape" fill="#CED9ED" fill-rule="evenodd" stroke="none" />
      <path d="M33.1524 20.6522L31.0172 32.235L33.8031 32.235L34.3578 29.0764L36.0914 29.0764C39.7203 29.0764 41.6945 28.2358 42.4328 25.1218C43.068 22.446 41.4453 20.653 38.7688 20.653L33.1524 20.653L33.1524 20.6522ZM36.5516 26.9703L34.7508 26.9703L35.5461 22.7585L37.7164 22.7585C39.5149 22.7585 39.893 23.5695 39.7992 24.4718C39.5578 26.7945 38.1094 26.9703 36.5516 26.9703L36.5516 26.9703ZM11.0391 20.6522L8.90392 32.235L11.6899 32.235L12.2445 29.0764L13.9781 29.0764C17.607 29.0764 19.5813 28.2358 20.3195 25.1218C20.9547 22.446 19.332 20.653 16.6555 20.653L11.0391 20.653L11.0391 20.6522ZM14.4383 26.9703L12.6375 26.9703L13.4328 22.7585L15.6031 22.7585C17.4016 22.7585 17.7797 23.5695 17.6859 24.4718C17.4445 26.7945 15.9969 26.9703 14.4383 26.9703L14.4383 26.9703ZM30.7117 21.4179C30.1164 20.8726 29.068 20.6523 27.5047 20.6523L25.0414 20.6523L25.9195 16.4406L23.1563 16.4406L20.5164 29.0765L23.2805 29.0765L24.6133 22.7585L26.8227 22.7585C27.5274 22.7585 27.9922 22.8765 28.2094 23.1093C28.425 23.3445 28.4727 23.7866 28.3477 24.4265L27.3391 29.0765L30.1461 29.0765L31.2391 24.0452C31.4734 22.839 31.2961 21.9546 30.7117 21.4179L30.7117 21.4179Z" id="Shape" fill="#8D6C9E" fill-rule="evenodd" stroke="none" />
      <path d="M25 40.1156C11.2148 40.1156 0 33.3953 0 25.1359C0 16.8766 11.2148 10.1563 25 10.1563C38.7852 10.1563 50 16.8766 50 25.1359C50 33.3953 38.7852 40.1156 25 40.1156L25 40.1156ZM25 11.7188C12.0766 11.7188 1.5625 17.7375 1.5625 25.1359C1.5625 32.5344 12.0766 38.5531 25 38.5531C37.9234 38.5531 48.4375 32.5344 48.4375 25.1359C48.4375 17.7375 37.9234 11.7188 25 11.7188L25 11.7188ZM45.8539 39.5836C45.5961 39.5836 45.3438 39.4562 45.1938 39.2219L44.3547 37.9039C44.1227 37.5398 44.2305 37.057 44.5945 36.825C44.957 36.5937 45.4406 36.7 45.6734 37.0648L46.5125 38.3828C46.7445 38.7468 46.6367 39.2297 46.2727 39.4617C46.143 39.5437 45.9977 39.5836 45.8539 39.5836L45.8539 39.5836ZM42.5359 41.4094C42.243 41.4094 41.9625 41.2437 41.8289 40.9617L41.1617 39.5484C40.9781 39.1586 41.1453 38.6922 41.5352 38.5086C41.9266 38.3234 42.3906 38.4922 42.575 38.882L43.2422 40.2953C43.4258 40.6851 43.2586 41.1515 42.8688 41.3351C42.7609 41.3859 42.6477 41.4094 42.5359 41.4094L42.5359 41.4094ZM39.0383 42.8258C38.7148 42.8258 38.4117 42.6227 38.3 42.3L37.7891 40.8227C37.6477 40.4149 37.8648 39.9695 38.2719 39.8289C38.6789 39.6883 39.1242 39.9047 39.2656 40.3117L39.7766 41.7891C39.918 42.1969 39.7008 42.6422 39.2938 42.7828C39.2094 42.8125 39.1227 42.8258 39.0383 42.8258L39.0383 42.8258ZM35.425 43.8836C35.0727 43.8836 34.7531 43.643 34.6664 43.2852L34.2992 41.7664C34.1977 41.3477 34.4555 40.925 34.875 40.8243C35.2883 40.7219 35.7156 40.9805 35.8172 41.4L36.1844 42.9188C36.2859 43.3375 36.0281 43.7602 35.6086 43.861C35.5477 43.8766 35.4859 43.8836 35.425 43.8836L35.425 43.8836ZM31.7351 44.6039C31.3547 44.6039 31.0211 44.3257 30.9633 43.9375L30.732 42.3914C30.6687 41.9648 30.9625 41.5671 31.3898 41.5031C31.8211 41.4453 32.2148 41.7343 32.2781 42.1609L32.5094 43.707C32.5727 44.1335 32.2789 44.5312 31.8516 44.5953C31.8125 44.6007 31.7734 44.6039 31.7351 44.6039L31.7351 44.6039ZM28.0008 44.9968C27.593 44.9968 27.2484 44.6796 27.2219 44.2656L27.1211 42.7062C27.0937 42.2757 27.4203 41.9046 27.8508 41.8757C28.2758 41.8546 28.6531 42.175 28.6812 42.6054L28.782 44.1648C28.8094 44.5953 28.4828 44.9664 28.0523 44.9953C28.0352 44.9961 28.0172 44.9968 28.0008 44.9968L28.0008 44.9968Z" id="Shape" fill="#8D6C9F" fill-rule="evenodd" stroke="none" />
      <g id="Group" transform="translate(16.298706 14.322754)">
        <path d="M0.780977 2.20923C0.430977 2.20923 0.112227 1.97173 0.0231653 1.61626C-0.0807404 1.19751 0.174728 0.773288 0.592697 0.669382C1.64348 0.408445 2.75363 0.18657 3.8927 0.0092268C4.32004 -0.0563979 4.71848 0.235008 4.78488 0.660789C4.85129 1.08735 4.5591 1.48657 4.13332 1.55298C3.03957 1.72329 1.97551 1.93579 0.970042 2.18579C0.906759 2.2022 0.843477 2.20923 0.780977 2.20923L0.780977 2.20923Z" id="Shape" fill="#8D6C9F" fill-rule="evenodd" stroke="none" />
      </g>
      <g id="Group" transform="translate(4.6878357 15.912842)">
        <path d="M0.780137 7.52237C0.652793 7.52237 0.523887 7.49112 0.404356 7.42549C0.0285748 7.21768 -0.110488 6.74659 0.0949811 6.36924C0.180138 6.21299 2.2567 2.52159 9.01998 0.0481486C9.42311 -0.10107 9.87311 0.108305 10.0215 0.513774C10.17 0.919242 9.96139 1.36768 9.55592 1.51534C3.39654 3.76768 1.48248 7.08799 1.46451 7.12081C1.32154 7.37784 1.05436 7.52237 0.780137 7.52237L0.780137 7.52237Z" id="Shape" fill="#8D6C9F" fill-rule="evenodd" stroke="none" />
      </g>
    </g>
  </g>
</svg>