<?xml version="1.0" encoding="utf-8"?>
<svg width="35px" height="35px" viewBox="0 0 35 35" version="1.1" xmlns:xlink="http://www.w3.org/1999/xlink" xmlns="http://www.w3.org/2000/svg">
  <defs>
    <linearGradient x1="0.14645001" y1="0.14644995" x2="0.85355" y2="0.85354996" id="gradient_1">
      <stop offset="0" stop-color="#33BEF0" />
      <stop offset="1" stop-color="#0A85D9" />
    </linearGradient>
    <linearGradient x1="0.5" y1="0" x2="0.5" y2="1" id="gradient_2">
      <stop offset="0" stop-color="#005BEA" />
      <stop offset="1" stop-color="#00C6FB" />
    </linearGradient>
    <path d="M0 0L35 0L35 35L0 35L0 0Z" id="path_1" />
    <clipPath id="mask_1">
      <use xlink:href="#path_1" />
    </clipPath>
  </defs>
  <g id="Services-icon">
    <path d="M0 0L35 0L35 35L0 35L0 0Z" id="Background" fill="none" fill-rule="evenodd" stroke="none" />
    <g clip-path="url(#mask_1)">
      <path d="M18.6667 25.0834C18.7396 24.7917 18.7396 24.4272 18.7396 24.0626C18.7396 23.698 18.7396 23.4063 18.6667 23.0417L20.7083 21.5834C20.9271 21.4376 21 21.1459 20.8542 20.9272L18.8854 17.573C18.7396 17.3542 18.5208 17.2813 18.3021 17.3542L16.0417 18.448C15.5312 18.0105 14.9479 17.7188 14.2917 17.4272L14.0729 14.948C14.0729 14.7292 13.8542 14.5105 13.6354 14.5105L9.77083 14.5105C9.55208 14.5105 9.33333 14.7292 9.33333 14.948L9.04166 17.5001C8.38541 17.7188 7.87499 18.0834 7.29166 18.5209L5.03124 17.5001C4.81249 17.4272 4.52083 17.5001 4.44791 17.7188L2.47916 21.073C2.33333 21.2917 2.40624 21.5834 2.62499 21.7292L4.66666 23.1876C4.59374 23.4792 4.59374 23.8438 4.59374 24.2084C4.59374 24.573 4.59374 24.8647 4.66666 25.2292L2.62499 26.6876C2.40624 26.8334 2.33333 27.1251 2.47916 27.3438L4.44791 30.698C4.59374 30.9167 4.81249 30.9897 5.03124 30.9167L7.29166 29.8959C7.80208 30.3334 8.38541 30.6251 9.04166 30.9167L9.26041 33.3959C9.26041 33.6147 9.47916 33.8334 9.69791 33.8334L13.5625 33.8334C13.7812 33.8334 14 33.6147 14 33.3959L14.2187 30.9167C14.875 30.698 15.3854 30.3334 15.9687 29.8959L18.2292 30.9167C18.4479 30.9897 18.7396 30.9167 18.8125 30.698L20.7812 27.3438C20.9271 27.1251 20.8542 26.8334 20.6354 26.6876L18.6667 25.0834L18.6667 25.0834ZM11.6667 27.7084C9.625 27.7084 8.02083 26.1042 8.02083 24.0626C8.02083 22.0209 9.625 20.4167 11.6667 20.4167C13.7083 20.4167 15.3125 22.0209 15.3125 24.0626C15.3125 26.1042 13.7083 27.7084 11.6667 27.7084L11.6667 27.7084Z" id="Shape" fill="url(#gradient_1)" fill-rule="evenodd" stroke="none" />
      <path d="M30.5521 11.1562C30.625 10.7916 30.625 10.4999 30.625 10.2083C30.625 9.91659 30.625 9.62492 30.5521 9.26034L32.375 7.94784C32.5938 7.802 32.5938 7.58325 32.5209 7.3645L30.6979 4.22908C30.5521 4.01033 30.3334 3.93742 30.1146 4.08325L28 5.03117C27.4896 4.66658 26.9792 4.37492 26.3959 4.08325L26.1771 1.82283C26.25 1.60409 26.1042 1.45825 25.8854 1.45825L22.3125 1.45825C22.0938 1.45825 21.875 1.60409 21.875 1.82284L21.6563 4.08325C21.0729 4.302 20.5625 4.59367 20.0521 5.03117L17.9375 4.08325C17.7188 4.01033 17.5 4.08325 17.3542 4.22908L15.5313 7.3645C15.3854 7.58325 15.4584 7.802 15.6771 7.94784L17.5 9.26034C17.5 9.62492 17.5 9.91659 17.5 10.2083C17.5 10.4999 17.5 10.7916 17.5729 11.1562L15.75 12.4687C15.5313 12.6145 15.5313 12.8333 15.6042 13.052L17.4271 16.1874C17.5729 16.4062 17.7917 16.4791 18.0104 16.3333L20.125 15.3853C20.6354 15.7499 21.1459 16.0416 21.7292 16.3333L21.9479 18.5937C21.9479 18.8124 22.1667 18.9583 22.3854 18.9583L25.9584 18.9583C26.1771 18.9583 26.3959 18.8124 26.3959 18.5937L26.6146 16.3333C27.1979 16.1145 27.7084 15.8228 28.2188 15.3853L30.3334 16.3333C30.5521 16.4062 30.7709 16.3333 30.9167 16.1874L32.7396 13.052C32.8854 12.8333 32.8125 12.6145 32.5938 12.4687L30.5521 11.1562L30.5521 11.1562ZM24.0625 13.8542C22.0209 13.8542 20.4167 12.25 20.4167 10.2083C20.4167 8.16667 22.0209 6.5625 24.0625 6.5625C26.1042 6.5625 27.7084 8.16667 27.7084 10.2083C27.7084 12.25 26.1042 13.8542 24.0625 13.8542L24.0625 13.8542Z" id="Shape" fill="url(#gradient_2)" fill-rule="evenodd" stroke="none" />
    </g>
  </g>
</svg>