<?xml version="1.0" encoding="utf-8"?>
<svg width="35px" height="35px" viewBox="0 0 35 35" version="1.1" xmlns:xlink="http://www.w3.org/1999/xlink" xmlns="http://www.w3.org/2000/svg">
  <defs>
    <linearGradient x1="0.8483479" y1="0.8483479" x2="0.14700001" y2="0.14700001" id="gradient_1">
      <stop offset="0" stop-color="#FFFFFF" />
      <stop offset="0.242" stop-color="#F2F2F2" />
      <stop offset="1" stop-color="#CCCCCC" />
    </linearGradient>
    <linearGradient x1="0.032142997" y1="0.032142997" x2="0.85285723" y2="0.85285723" id="gradient_2">
      <stop offset="0" stop-color="#0D61A9" />
      <stop offset="0.36299998" stop-color="#0E5FA4" />
      <stop offset="0.78" stop-color="#135796" />
      <stop offset="1" stop-color="#16528C" />
    </linearGradient>
    <linearGradient x1="0.03315001" y1="0.012466535" x2="0.85205" y2="0.87213266" id="gradient_3">
      <stop offset="0" stop-color="#889097" />
      <stop offset="0.33099997" stop-color="#848C94" />
      <stop offset="0.669" stop-color="#78828B" />
      <stop offset="1" stop-color="#64717C" />
    </linearGradient>
    <path d="M0 0L35 0L35 35L0 35L0 0Z" id="path_1" />
    <clipPath id="mask_1">
      <use xlink:href="#path_1" />
    </clipPath>
  </defs>
  <g id="Settings-icon-2">
    <path d="M0 0L35 0L35 35L0 35L0 0Z" id="Background" fill="none" fill-rule="evenodd" stroke="none" />
    <g clip-path="url(#mask_1)">
      <path d="M9.11458 17.4999C9.11458 12.8688 12.8689 9.1145 17.5 9.1145C22.1311 9.1145 25.8854 12.8688 25.8854 17.4999C25.8854 22.1311 22.1311 25.8853 17.5 25.8853C12.8689 25.8853 9.11458 22.1311 9.11458 17.4999Z" id="Circle" fill="url(#gradient_1)" fill-rule="evenodd" stroke="none" />
      <path d="M12.3958 17.4999C12.3958 14.681 14.681 12.3958 17.5 12.3958C20.3189 12.3958 22.6042 14.681 22.6042 17.4999C22.6042 20.3189 20.3189 22.6041 17.5 22.6041C14.681 22.6041 12.3958 20.3189 12.3958 17.4999Z" id="Circle" fill="url(#gradient_2)" fill-rule="evenodd" stroke="none" />
      <path d="M31.6509 14.0313C29.909 14.0102 28.2224 13.1024 27.2883 11.4844C26.3893 9.92686 26.4075 8.09446 27.1702 6.60404C25.6207 5.22811 23.7854 4.16936 21.7525 3.55029C20.8374 4.92623 19.2755 5.83331 17.5 5.83331C15.7245 5.83331 14.1626 4.92623 13.2482 3.55029C11.2153 4.16936 9.38001 5.22811 7.83053 6.60404C8.59324 8.09446 8.61146 9.92686 7.7124 11.4844C6.77834 13.1024 5.09178 14.0102 3.3498 14.0313C3.07709 15.1448 2.91667 16.3027 2.91667 17.5C2.91667 18.4362 3.01365 19.3484 3.18209 20.2358C4.9824 20.1986 6.74844 21.1166 7.7124 22.7864C8.7099 24.5146 8.57792 26.581 7.55198 28.1422C9.07011 29.5619 10.8865 30.6622 12.9041 31.3323C13.728 29.6216 15.4737 28.4375 17.5 28.4375C19.5264 28.4375 21.272 29.6216 22.0959 31.333C24.1135 30.6629 25.9299 29.5626 27.448 28.1429C26.4221 26.5818 26.2901 24.5153 27.2876 22.7872C28.2516 21.1174 30.0169 20.1994 31.8179 20.2365C31.9864 19.3484 32.0833 18.4362 32.0833 17.5C32.0833 16.3027 31.9229 15.1448 31.6509 14.0313L31.6509 14.0313ZM17.5 25.1563C13.2716 25.1563 9.84375 21.7284 9.84375 17.5C9.84375 13.2716 13.2716 9.84375 17.5 9.84375C21.7284 9.84375 25.1563 13.2716 25.1563 17.5C25.1563 21.7284 21.7284 25.1563 17.5 25.1563L17.5 25.1563Z" id="Shape" fill="url(#gradient_3)" fill-rule="evenodd" stroke="none" />
    </g>
  </g>
</svg>